<?xml version="1.0" standalone="no"?>
<!DOCTYPE svg PUBLIC "-//W3C//DTD SVG 20010904//EN"
 "http://www.w3.org/TR/2001/REC-SVG-20010904/DTD/svg10.dtd">
<svg version="1.0" xmlns="http://www.w3.org/2000/svg"
 width="500.000000pt" height="500.000000pt" viewBox="0 0 500.000000 500.000000"
 preserveAspectRatio="xMidYMid meet">

<g transform="translate(0.000000,500.000000) scale(0.100000,-0.100000)"
fill="#000000" stroke="none">
<path d="M0 2500 l0 -2500 2500 0 2500 0 0 2500 0 2500 -2500 0 -2500 0 0
-2500z m4170 184 c0 -334 -3 -503 -10 -499 -6 4 -10 180 -10 496 l0 489 -1640
0 -1640 0 0 -615 0 -615 906 0 c601 0 903 -3 899 -10 -4 -7 -320 -10 -916 -10
l-909 0 0 635 0 635 1660 0 1660 0 0 -506z m-2556 145 c67 -17 108 -65 114
-132 4 -49 2 -57 -28 -90 l-31 -36 35 -32 c65 -56 70 -143 14 -214 -38 -48
-90 -65 -210 -65 l-108 0 0 290 0 290 86 0 c47 0 105 -5 128 -11z m326 -249
l0 -260 115 0 115 0 0 -30 0 -30 -145 0 -145 0 0 290 0 290 30 0 30 0 0 -260z
m400 -30 l0 -290 -35 0 -35 0 0 283 c0 156 3 287 7 290 3 4 19 7 35 7 l28 0 0
-290z m395 66 l190 -224 3 224 2 224 35 0 35 0 0 -291 0 -290 -24 3 c-18 2
-77 64 -215 227 l-191 223 0 -226 0 -226 -35 0 -35 0 0 290 0 290 23 0 c16 0
69 -56 212 -224z m485 92 l0 -133 48 50 c26 28 81 87 122 133 72 80 77 83 113
80 l38 -3 -126 -139 -125 -138 83 -91 c45 -49 106 -116 135 -148 l54 -59 -45
0 c-44 0 -44 0 -168 136 l-124 137 -3 -137 -3 -136 -34 0 -35 0 0 290 0 290
35 0 35 0 0 -132z m535 -648 c-4 -6 -15 -8 -25 -5 -29 9 -71 -6 -80 -29 -7
-17 -9 -18 -9 -3 -1 14 -5 16 -20 7 -27 -14 -41 -12 -16 2 55 32 165 52 150
28z m-637 -7 c-10 -2 -26 -2 -35 0 -10 3 -2 5 17 5 19 0 27 -2 18 -5z m-71
-20 c-8 -10 -17 -29 -20 -43 l-4 -25 -2 27 c0 15 6 34 15 42 21 22 31 20 11
-1z m113 -14 c0 -30 -26 -64 -72 -94 l-41 -27 7 32 c3 18 6 40 7 49 1 11 3 9
7 -6 7 -21 8 -21 42 -4 29 14 35 22 35 48 0 17 3 29 7 26 5 -2 8 -13 8 -24z
m712 -37 c-27 -66 -37 -111 -21 -94 18 17 29 15 29 -5 1 -14 6 -12 25 10 23
26 25 26 25 8 0 -27 16 -27 30 -1 12 22 36 27 43 8 3 -10 8 -10 18 -2 19 14
38 12 49 -5 7 -13 11 -13 27 -1 17 13 17 13 0 -6 -18 -18 -19 -18 -32 -1 -13
18 -14 17 -30 -10 -9 -15 -14 -20 -11 -10 6 20 -14 23 -33 5 -11 -10 -14 -10
-18 -1 -3 10 -9 10 -24 0 -16 -9 -21 -9 -28 1 -6 10 -11 10 -21 -3 -13 -16
-15 -16 -26 0 -11 15 -14 14 -29 -14 -20 -40 -26 -39 -19 2 6 31 6 31 -9 12
-9 -11 -17 -26 -17 -32 0 -7 -4 -13 -10 -13 -5 0 -9 -5 -7 -11 1 -6 -4 -14
-12 -17 -11 -3 -12 0 -6 14 14 36 15 49 5 64 -8 13 -11 13 -19 1 -6 -9 -15
-11 -27 -6 -11 5 -25 7 -31 6 -7 -1 -13 4 -13 12 0 16 20 37 35 37 5 0 2 -5
-7 -11 -10 -5 -18 -15 -18 -21 0 -7 5 -6 15 2 12 10 15 10 15 -4 0 -23 12 -20
40 12 14 15 21 22 16 15 -5 -8 -4 -23 3 -39 l11 -25 24 28 c13 16 29 48 36 72
18 67 32 98 37 83 3 -7 -4 -34 -15 -60z m-795 26 c-3 -7 -5 -2 -5 12 0 14 2
19 5 13 2 -7 2 -19 0 -25z m398 -63 c-13 -38 -25 -66 -25 -61 0 5 -6 3 -14 -3
-14 -12 -46 -5 -57 12 -9 12 -29 0 -29 -18 0 -8 -7 -11 -20 -8 -26 7 -44 29
-30 38 5 3 10 -1 10 -9 0 -25 18 -19 33 10 l14 27 22 -24 21 -23 16 22 c8 12
22 22 30 22 8 0 14 7 14 15 0 22 31 92 36 80 2 -5 -7 -41 -21 -80z m100 65
c-3 -5 -12 -10 -18 -10 -7 0 -6 4 3 10 19 12 23 12 15 0z m59 -54 c-3 -21 -8
-35 -11 -32 -2 2 -1 20 3 40 3 21 8 35 11 32 2 -2 1 -20 -3 -40z m-454 -45
c-1 -52 -58 -112 -105 -110 -13 1 -9 4 12 10 62 18 104 101 71 139 -11 12 -10
12 5 1 9 -7 17 -25 17 -40z m45 29 c-4 -12 -2 -20 5 -20 8 0 10 -11 6 -35 -4
-19 -5 -35 -2 -35 3 0 17 18 31 40 14 22 31 40 38 40 9 0 9 -2 0 -8 -6 -4 -13
-13 -15 -21 -4 -18 -46 -61 -60 -61 -6 0 -8 13 -3 36 4 23 3 34 -4 30 -5 -4
-12 -2 -16 4 -8 13 4 50 16 50 6 0 7 -9 4 -20z m398 -57 c-5 -12 -8 -13 -11
-4 -3 9 -10 8 -30 -4 -25 -15 -25 -14 2 9 32 27 49 26 39 -1z m-576 -25 c-3
-7 -5 -2 -5 12 0 14 2 19 5 13 2 -7 2 -19 0 -25z m400 -35 c-3 -10 -5 -2 -5
17 0 19 2 27 5 18 2 -10 2 -26 0 -35z m160 5 c-3 -7 -5 -2 -5 12 0 14 2 19 5
13 2 -7 2 -19 0 -25z m-570 -25 c-3 -10 -5 -4 -5 12 0 17 2 24 5 18 2 -7 2
-21 0 -30z m560 -30 c-3 -10 -5 -4 -5 12 0 17 2 24 5 18 2 -7 2 -21 0 -30z
m-557 -3 c0 -5 -4 -10 -10 -10 -5 0 -10 5 -10 10 0 6 5 10 10 10 6 0 10 -4 10
-10z"/>
<path d="M1470 2680 l0 -90 38 0 c60 1 116 17 135 41 25 31 22 85 -8 114 -21
22 -33 25 -95 25 l-70 0 0 -90z"/>
<path d="M1470 2430 l0 -110 55 0 c100 0 160 41 160 111 0 69 -63 108 -172
109 l-43 0 0 -110z"/>
<path d="M3083 1948 c-13 -6 -23 -15 -23 -20 0 -10 36 7 45 22 7 12 7 12 -22
-2z"/>
<path d="M3975 1890 c3 -5 8 -10 11 -10 2 0 4 5 4 10 0 6 -5 10 -11 10 -5 0
-7 -4 -4 -10z"/>
<path d="M3426 1904 c-10 -25 1 -29 14 -5 6 12 7 21 1 21 -5 0 -12 -7 -15 -16z"/>
</g>
</svg>
