<?xml version="1.0" standalone="no"?>
<!DOCTYPE svg PUBLIC "-//W3C//DTD SVG 20010904//EN"
 "http://www.w3.org/TR/2001/REC-SVG-20010904/DTD/svg10.dtd">
<svg version="1.0" xmlns="http://www.w3.org/2000/svg"
 width="500.000000pt" height="500.000000pt" viewBox="0 0 500.000000 500.000000"
 preserveAspectRatio="xMidYMid meet">

<g transform="translate(0.000000,500.000000) scale(0.100000,-0.100000)"
fill="#000000" stroke="none">
<path d="M850 2555 l0 -635 909 0 c596 0 912 3 916 10 4 7 -298 10 -899 10
l-906 0 0 615 0 615 1640 0 1640 0 0 -489 c0 -316 4 -492 10 -496 7 -4 10 165
10 499 l0 506 -1660 0 -1660 0 0 -635z"/>
<path d="M1400 2560 l0 -290 98 0 c119 0 166 12 208 54 67 67 67 165 -2 225
l-35 32 31 36 c30 33 32 41 28 91 -4 48 -10 60 -41 88 -45 42 -91 54 -199 54
l-88 0 0 -290z m185 220 c48 -11 75 -41 75 -84 0 -63 -50 -96 -147 -96 l-43 0
0 95 0 95 38 0 c20 0 55 -5 77 -10z m17 -240 c43 -12 88 -61 88 -95 0 -71 -46
-106 -147 -113 l-73 -5 0 112 0 111 48 0 c26 0 64 -5 84 -10z"/>
<path d="M1880 2560 l0 -290 140 0 140 0 0 30 0 30 -110 0 -110 0 0 260 0 260
-30 0 -30 0 0 -290z"/>
<path d="M2280 2560 l0 -290 30 0 30 0 0 290 0 290 -30 0 -30 0 0 -290z"/>
<path d="M2507 2843 c-4 -3 -7 -134 -7 -290 l0 -283 35 0 35 0 0 226 0 225
191 -223 c135 -157 199 -224 215 -226 l24 -3 0 291 0 291 -32 -3 -33 -3 -5
-221 -5 -222 -190 223 c-174 204 -209 238 -228 218z"/>
<path d="M3157 2843 c-4 -3 -7 -134 -7 -290 l0 -283 35 0 34 0 3 137 3 137
125 -137 c123 -136 124 -137 168 -137 l44 0 -90 98 c-49 53 -110 120 -136 149
l-47 52 126 138 126 138 -38 3 c-36 3 -41 0 -108 -75 -38 -43 -93 -103 -122
-133 l-53 -55 0 133 0 132 -28 0 c-16 0 -32 -3 -35 -7z"/>
<path d="M3708 2073 c7 -3 16 -2 19 1 4 3 -2 6 -13 5 -11 0 -14 -3 -6 -6z"/>
<path d="M3083 2063 c9 -2 25 -2 35 0 9 3 1 5 -18 5 -19 0 -27 -2 -17 -5z"/>
<path d="M3643 2055 c-3 -9 -3 -19 1 -22 3 -4 6 1 6 10 0 8 8 18 18 20 16 4
16 5 -1 6 -10 0 -20 -6 -24 -14z"/>
<path d="M3148 2033 c5 -21 7 -23 10 -9 2 10 0 22 -6 28 -6 6 -7 0 -4 -19z"/>
<path d="M3873 2034 c-22 -55 -23 -79 -2 -36 11 24 19 48 17 54 -2 6 -9 -2
-15 -18z"/>
<path d="M3025 2029 c-4 -6 -5 -12 -2 -15 2 -3 7 2 10 11 7 17 1 20 -8 4z"/>
<path d="M3071 2024 c0 -11 3 -14 6 -6 3 7 2 16 -1 19 -3 4 -6 -2 -5 -13z"/>
<path d="M3482 2023 c-12 -22 -25 -83 -19 -83 7 0 38 92 33 98 -3 2 -9 -5 -14
-15z"/>
<path d="M3631 1994 c0 -11 3 -14 6 -6 3 7 2 16 -1 19 -3 4 -6 -2 -5 -13z"/>
<path d="M3108 1973 c6 -2 18 -2 25 0 6 3 1 5 -13 5 -14 0 -19 -2 -12 -5z"/>
<path d="M3053 1945 c-3 -9 -3 -18 -1 -21 3 -3 8 4 11 16 6 23 -1 27 -10 5z"/>
<path d="M3209 1958 c-6 -21 -5 -37 1 -33 5 3 13 -3 19 -12 9 -16 10 -16 11
-2 0 9 -8 20 -17 23 -15 6 -15 8 -3 16 10 7 11 10 3 10 -7 0 -13 -1 -14 -2z"/>
<path d="M3621 1944 c0 -11 3 -14 6 -6 3 7 2 16 -1 19 -3 4 -6 -2 -5 -13z"/>
<path d="M3172 1920 c0 -14 2 -19 5 -12 2 6 2 18 0 25 -3 6 -5 1 -5 -13z"/>
<path d="M3276 1918 c-9 -12 -14 -24 -12 -26 8 -7 46 9 46 20 0 6 -6 6 -15 -2
-10 -8 -15 -9 -15 -2 0 6 8 16 18 21 9 6 12 11 5 11 -6 0 -19 -10 -27 -22z"/>
<path d="M3343 1910 c-6 -17 -7 -30 -2 -30 9 0 24 48 17 55 -2 2 -9 -9 -15
-25z"/>
<path d="M3416 1918 c-9 -12 -12 -26 -7 -31 12 -12 52 15 49 32 -5 24 -25 23
-42 -1z m34 3 c0 -5 -7 -14 -15 -21 -12 -10 -15 -10 -15 2 0 8 3 18 7 21 9 10
23 9 23 -2z"/>
<path d="M3695 1930 c-3 -6 1 -7 9 -4 18 7 21 14 7 14 -6 0 -13 -4 -16 -10z"/>
<path d="M3761 1921 c-8 -14 -7 -20 2 -24 7 -3 12 5 12 19 0 29 -1 29 -14 5z"/>
<path d="M3826 1912 c-11 -14 -14 -22 -6 -17 10 6 12 0 8 -24 -6 -39 -3 -39
18 1 14 28 17 29 26 14 9 -17 11 -17 29 0 11 10 19 12 19 6 0 -17 21 -15 42 5
17 15 20 15 28 3 8 -12 10 -10 10 8 0 27 -11 28 -35 2 -22 -24 -35 -26 -35 -3
0 14 -4 12 -25 -7 -21 -19 -25 -21 -25 -7 0 19 -15 23 -25 7 -4 -6 -11 -7 -17
-4 -7 4 -6 9 2 14 7 4 11 12 9 18 -2 6 -13 -1 -23 -16z"/>
<path d="M4030 1915 c0 -7 -3 -22 -6 -32 -3 -10 2 -5 11 10 16 27 17 28 30 10
13 -17 14 -17 32 1 17 19 17 19 0 6 -16 -12 -20 -12 -27 0 -11 18 -40 22 -40
5z"/>
<path d="M3610 1904 c0 -8 5 -12 10 -9 6 4 8 11 5 16 -9 14 -15 11 -15 -7z"/>
<path d="M3705 1911 c-3 -6 -11 -9 -16 -6 -5 4 -9 1 -9 -4 0 -13 10 -14 30 -1
8 5 12 12 8 15 -3 4 -9 1 -13 -4z"/>
<path d="M3042 1880 c0 -14 2 -19 5 -12 2 6 2 18 0 25 -3 6 -5 1 -5 -13z"/>
<path d="M3575 1890 c-3 -6 1 -7 9 -4 18 7 21 14 7 14 -6 0 -13 -4 -16 -10z"/>
<path d="M3221 1868 c-1 -10 3 -18 8 -18 5 0 15 8 22 18 13 15 12 16 -3 4 -13
-10 -17 -10 -21 0 -4 8 -6 7 -6 -4z"/>
<path d="M3783 1866 c-1 -21 -8 -41 -18 -49 -6 -5 -5 -7 3 -5 8 2 13 8 13 13
0 6 6 19 14 31 10 16 10 21 1 21 -7 0 -13 -5 -13 -11z"/>
<path d="M3441 1854 c0 -11 3 -14 6 -6 3 7 2 16 -1 19 -3 4 -6 -2 -5 -13z"/>
<path d="M3601 1854 c0 -11 3 -14 6 -6 3 7 2 16 -1 19 -3 4 -6 -2 -5 -13z"/>
<path d="M3100 1829 c-19 -11 -28 -19 -19 -19 9 0 27 9 40 20 29 23 25 23 -21
-1z"/>
<path d="M3031 1824 c0 -11 3 -14 6 -6 3 7 2 16 -1 19 -3 4 -6 -2 -5 -13z"/>
<path d="M3592 1795 c0 -16 2 -22 5 -12 2 9 2 23 0 30 -3 6 -5 -1 -5 -18z"/>
</g>
</svg>
